<?xml version="1.0" encoding="utf-8"?>
<!-- Generator: Adobe Illustrator 21.0.0, SVG Export Plug-In . SVG Version: 6.00 Build 0)  -->
<svg version="1.1" id="圖層_1" xmlns="http://www.w3.org/2000/svg" xmlns:xlink="http://www.w3.org/1999/xlink" x="0px" y="0px"
	 viewBox="0 0 30 30" style="enable-background:new 0 0 30 30;" xml:space="preserve">
<style type="text/css">
	.st0{fill-rule:evenodd;clip-rule:evenodd;}
</style>
<path class="st0" d="M15,0C6.7,0,0,6.7,0,15s6.7,15,15,15s15-6.7,15-15S23.3,0,15,0z M18.5,11.5c0,0.1-0.1,0.2-0.2,0.2
	c-0.1,0.1-0.2,0.1-0.2,0.2C18,12,17.9,12,17.8,12c-0.1,0-0.3,0-0.3-0.1c-0.1,0-0.2-0.1-0.3-0.2l-1.3-1.2v10.7c0,0.3-0.1,0.5-0.2,0.6
	c-0.2,0.2-0.4,0.2-0.6,0.2s-0.5-0.1-0.6-0.2c-0.2-0.2-0.2-0.4-0.2-0.6V10.5l-1.3,1.2c-0.1,0.1-0.2,0.2-0.3,0.2
	c-0.1,0-0.2,0.1-0.3,0.1c-0.1,0-0.2,0-0.3-0.1c-0.1,0-0.2-0.1-0.2-0.2c-0.1-0.1-0.1-0.2-0.2-0.2c0-0.1-0.1-0.2-0.1-0.3
	c0-0.1,0-0.2,0.1-0.3c0-0.1,0.1-0.2,0.2-0.3l2.6-2.4C14.5,8.1,14.6,8,14.7,8c0.1,0,0.2-0.1,0.3-0.1s0.3,0,0.3,0.1
	c0.1,0.1,0.2,0.1,0.3,0.3l2.6,2.4c0.1,0.1,0.2,0.2,0.2,0.3c0.1,0.1,0.1,0.2,0.1,0.3C18.5,11.3,18.5,11.4,18.5,11.5z"/>
</svg>
