<?xml version="1.0" encoding="utf-8"?>
<!-- Generator: Adobe Illustrator 21.0.0, SVG Export Plug-In . SVG Version: 6.00 Build 0)  -->
<svg version="1.1" id="圖層_1" xmlns="http://www.w3.org/2000/svg" xmlns:xlink="http://www.w3.org/1999/xlink" x="0px" y="0px"
	 viewBox="0 0 440.6 178.4" style="enable-background:new 0 0 440.6 178.4;" xml:space="preserve">
<path d="M107.9,120.9c8.8-29.8,13.5-48.3,14-55.4l0.5,3.9c0.5,2.6,1.9,8.5,4.3,17.7c2.3,9.2,5.3,20.4,9,33.8l15.3,55.4h44.7L242.6,1
	h-40.8l-16.1,64.2c-7.4,29.5-12.3,51.9-14.6,67.3l-1.6-7c-1-4.7-3-12.6-5.8-23.8c-2.9-11.2-6.1-23.3-9.8-36.3L136.8,3.6h-29.6
	L89.7,65.5c-8.8,31.2-14.8,53.6-17.7,67.1l-1-6.2c-0.5-4.3-1.9-12.1-4.2-23.3c-2.3-11.2-5.1-23.7-8.6-37.6L42.1,1H0l47.1,175.2h44.7
	L107.9,120.9z"/>
<path d="M370,108.4c-1.9-5.2-4.2-9.6-6.9-13.1c-2.7-3.6-6.3-6.9-10.9-10.2c-4.6-3.2-8.7-5.7-12.2-7.5c-3.6-1.8-8-3.9-13.4-6.4
	c-8.7-3.8-15.2-7.4-19.5-10.8c-4.3-3.4-6.5-7.2-6.5-11.6c0-4.3,1.8-7.9,5.3-10.6c3.5-2.8,8.7-4.2,15.5-4.2
	c15.1,0,29.6,4.1,43.7,12.2V8.8C352.5,3,337.4,0,319.9,0c-19.6,0-34.9,4.6-46,13.9c-11.1,9.3-16.6,21.4-16.6,36.5
	c0,12.7,3.4,22.8,10.3,30.4c6.8,7.6,15.9,14,27.2,19.2c2.1,0.9,4.8,2.1,8.2,3.7c3.4,1.6,5.9,2.8,7.7,3.6c1.7,0.9,3.9,1.9,6.4,3.3
	c2.5,1.3,4.4,2.4,5.7,3.4c1.3,1,2.6,2.1,4,3.5c1.4,1.4,2.3,2.9,2.9,4.4c0.5,1.6,0.8,3.2,0.8,4.9c0,5.2-2,9.4-6,12.6
	c-4,3.2-9,4.8-15.1,4.8c-17.9,0-34.7-5.7-50.4-17.2v40.3c13,7.3,29.8,10.9,50.4,10.9c19.2,0,34.7-4.9,46.3-14.7
	c11.6-9.8,17.4-22.6,17.4-38.3C372.9,119.3,372,113.6,370,108.4z"/>
<rect x="400.6" y="1" width="40" height="175.2"/>
</svg>
