<?xml version="1.0" encoding="utf-8"?>
<!-- Generator: Adobe Illustrator 21.0.0, SVG Export Plug-In . SVG Version: 6.00 Build 0)  -->
<svg version="1.1" id="圖層_1" xmlns="http://www.w3.org/2000/svg" xmlns:xlink="http://www.w3.org/1999/xlink" x="0px" y="0px"
	 viewBox="0 0 470 470" style="enable-background:new 0 0 470 470;" xml:space="preserve">
<style type="text/css">
	.st0{fill:#64CB85;}
	.st1{fill:#55CCDC;}
	.st2{fill:#3ED3C7;}
	.st3{fill-rule:evenodd;clip-rule:evenodd;fill:#FFFFFF;}
	.st4{fill:#7ECC30;}
	.st5{fill:#6D4E34;}
</style>
<path class="st0" d="M468.2,201.6C451.9,86.7,351.8,0,235.3,0C198.9,0,163.9,8.1,132,23.7c5.9-0.9,12.2-1.5,18.8-1.5
	c7.9,0,15.8,0.8,23.4,2.5c42.2,9.1,64.1,48.5,65.5,51.1l134.4,232.5c10.4-0.3,44.1-3.2,66.5-27.8C471,247.2,468.4,203.9,468.2,201.6
	z"/>
<path class="st1" d="M172.1,34.6c-6.9-1.5-14.1-2.3-21.3-2.3c-33.6,0-59.1,16.6-60.9,17.8C32.8,95.1,0,162.5,0,235
	c0,79.6,39.5,151.9,103.6,194.9c-8-9.8-15.4-22.1-20.2-37c-13.2-41.2,10.1-79.9,11.6-82.2L229.4,78.3
	C224.2,69.9,204.5,41.7,172.1,34.6z"/>
<path class="st2" d="M448.2,287.3c-26.9,29.6-68,31.1-76,31.1c-0.6,0-1,0-1.1,0H102.4c-4.7,8.7-19.3,39.9-9.2,71.4
	c14,43.7,54.3,63.1,54.7,63.3l0.4,0.2c27.7,11,56.9,16.6,87,16.6c124.1,0,226.1-96.4,234.7-218.2
	C465.5,263.5,458.6,275.9,448.2,287.3z"/>
<path class="st3" d="M375.4,171.3c-7.5,0-13.5-6-13.5-13.5c0-7.5,6.1-13.5,13.5-13.5c7.5,0,13.5,6.1,13.5,13.5
	C388.9,165.3,382.8,171.3,375.4,171.3z M410.7,152.5l-9.2-1.4c-0.6-2.5-1.6-4.9-2.9-7l5.5-7.5c0.4-0.6,0.4-1.5-0.2-2l-5.3-5.3
	c-0.5-0.5-1.4-0.6-2-0.2l-7.5,5.5c-2.2-1.3-4.5-2.3-7.1-2.9l-1.4-9.1c-0.1-0.7-0.8-1.3-1.6-1.3h-7.5c-0.7,0-1.4,0.6-1.5,1.3
	l-1.4,9.1c-2.5,0.6-4.9,1.6-7.1,2.9l-7.5-5.5c-0.6-0.4-1.5-0.4-2,0.2l-5.3,5.3c-0.5,0.5-0.6,1.4-0.1,2l5.5,7.5
	c-1.3,2.2-2.3,4.5-2.9,7l-9.2,1.4c-0.7,0.1-1.3,0.8-1.3,1.5v7.5c0,0.7,0.6,1.4,1.3,1.5l9.2,1.4c0.6,2.5,1.6,4.9,2.9,7l-5.5,7.5
	c-0.5,0.6-0.4,1.5,0.1,2l5.3,5.3c0.5,0.5,1.4,0.6,2,0.1l7.5-5.5c2.2,1.3,4.5,2.3,7.1,2.9l1.4,9.1c0.1,0.7,0.8,1.3,1.5,1.3h7.5
	c0.7,0,1.4-0.6,1.6-1.3l1.4-9.1c2.5-0.6,4.9-1.6,7.1-2.9l7.5,5.5c0.6,0.4,1.5,0.4,2-0.1l5.3-5.3c0.5-0.5,0.6-1.4,0.2-2l-5.5-7.5
	c1.3-2.2,2.3-4.5,2.9-7l9.2-1.4c0.7-0.1,1.3-0.8,1.3-1.5v-7.5C412,153.4,411.4,152.6,410.7,152.5z"/>
<g>
	<path d="M172.6,239.6c-0.1,0.1-0.1,0.1-0.2,0.1h-7.5c-0.1,0-0.1,0-0.1,0.1v3c0,0.1,0,0.1,0.1,0.1h4.8c0.1,0,0.1,0,0.2,0.1
		c0.1,0.1,0.1,0.1,0.1,0.2v2.8c0,0.1,0,0.1-0.1,0.2c-0.1,0.1-0.1,0.1-0.2,0.1h-4.8c-0.1,0-0.1,0-0.1,0.1v3.2c0,0.1,0,0.1,0.1,0.1
		h7.5c0.1,0,0.1,0,0.2,0.1c0.1,0.1,0.1,0.1,0.1,0.2v2.8c0,0.1,0,0.1-0.1,0.2c-0.1,0.1-0.1,0.1-0.2,0.1h-11.4c-0.1,0-0.1,0-0.2-0.1
		s-0.1-0.1-0.1-0.2v-16.2c0-0.1,0-0.1,0.1-0.2s0.1-0.1,0.2-0.1h11.4c0.1,0,0.1,0,0.2,0.1c0.1,0.1,0.1,0.1,0.1,0.2v2.8
		C172.7,239.5,172.7,239.5,172.6,239.6z"/>
	<path d="M184.5,241.7c0.8,0.8,1.2,1.9,1.2,3.2v7.9c0,0.1,0,0.1-0.1,0.2c-0.1,0.1-0.1,0.1-0.2,0.1H182c-0.1,0-0.1,0-0.2-0.1
		c-0.1-0.1-0.1-0.1-0.1-0.2v-7c0-0.5-0.2-1-0.5-1.3c-0.3-0.4-0.7-0.5-1.2-0.5c-0.5,0-0.9,0.2-1.2,0.5c-0.3,0.3-0.5,0.8-0.5,1.4v7
		c0,0.1,0,0.1-0.1,0.2c-0.1,0.1-0.1,0.1-0.2,0.1h-3.4c-0.1,0-0.1,0-0.2-0.1c-0.1-0.1-0.1-0.1-0.1-0.2v-11.8c0-0.1,0-0.1,0.1-0.2
		c0.1-0.1,0.1-0.1,0.2-0.1h3.4c0.1,0,0.1,0,0.2,0.1c0.1,0.1,0.1,0.1,0.1,0.2v0.9c0,0.1,0,0.1,0,0.1c0,0,0.1,0,0.1-0.1
		c0.6-0.9,1.6-1.4,2.9-1.4C182.7,240.5,183.7,240.9,184.5,241.7z"/>
	<path d="M190.2,252.8l-3.8-11.9c0,0,0-0.1,0-0.1c0-0.1,0.1-0.2,0.3-0.2h3.7c0.2,0,0.3,0.1,0.3,0.2l1.6,6.6c0,0,0,0.1,0.1,0.1
		c0,0,0.1,0,0.1-0.1l1.6-6.6c0-0.2,0.2-0.2,0.3-0.2l3.7,0c0.1,0,0.2,0,0.2,0.1s0.1,0.1,0,0.3l-3.7,11.8c0,0.2-0.2,0.2-0.3,0.2h-3.8
		C190.4,253.1,190.3,253,190.2,252.8z"/>
	<path d="M200.5,239c-0.4-0.4-0.6-0.9-0.6-1.5c0-0.6,0.2-1.1,0.6-1.5c0.4-0.4,0.9-0.6,1.5-0.6c0.6,0,1.1,0.2,1.5,0.6
		c0.4,0.4,0.6,0.9,0.6,1.5c0,0.6-0.2,1.1-0.6,1.5s-0.9,0.6-1.5,0.6C201.4,239.6,200.9,239.4,200.5,239z M200,253
		c-0.1-0.1-0.1-0.1-0.1-0.2v-11.8c0-0.1,0-0.1,0.1-0.2c0.1-0.1,0.1-0.1,0.2-0.1h3.4c0.1,0,0.1,0,0.2,0.1c0.1,0.1,0.1,0.1,0.1,0.2
		v11.8c0,0.1,0,0.1-0.1,0.2c-0.1,0.1-0.1,0.1-0.2,0.1h-3.4C200.2,253.1,200.1,253,200,253z"/>
	<path d="M213.9,240.8c0.1,0.1,0.2,0.2,0.1,0.4l-0.6,3.3c0,0.2-0.1,0.2-0.3,0.2c-0.3-0.1-0.6-0.1-0.8-0.1c-0.3,0-0.5,0-0.6,0
		c-0.5,0.1-0.9,0.3-1.3,0.6c-0.3,0.3-0.5,0.7-0.5,1.3v6.3c0,0.1,0,0.1-0.1,0.2c-0.1,0.1-0.1,0.1-0.2,0.1h-3.4c-0.1,0-0.1,0-0.2-0.1
		c-0.1-0.1-0.1-0.1-0.1-0.2v-11.8c0-0.1,0-0.1,0.1-0.2c0.1-0.1,0.1-0.1,0.2-0.1h3.4c0.1,0,0.1,0,0.2,0.1c0.1,0.1,0.1,0.1,0.1,0.2
		v0.8c0,0,0,0.1,0,0.1c0,0,0.1,0,0.1,0c0.6-0.8,1.5-1.3,2.5-1.3C213.2,240.5,213.6,240.6,213.9,240.8z"/>
	<path d="M217,252.1c-1-0.8-1.7-1.8-2-3.1c-0.2-0.7-0.3-1.4-0.3-2.2c0-0.9,0.1-1.7,0.3-2.3c0.4-1.3,1.1-2.3,2.1-3
		c1-0.7,2.2-1.1,3.6-1.1c1.4,0,2.6,0.4,3.6,1.1c1,0.7,1.7,1.7,2,2.9c0.2,0.7,0.3,1.5,0.3,2.3c0,0.7-0.1,1.4-0.3,2.1
		c-0.3,1.3-1,2.4-2,3.2c-1,0.8-2.2,1.2-3.7,1.2C219.2,253.3,218,252.9,217,252.1z M221.8,249.4c0.3-0.3,0.5-0.7,0.7-1.2
		c0.1-0.4,0.1-0.9,0.1-1.4c0-0.5-0.1-0.9-0.2-1.4c-0.1-0.5-0.3-0.9-0.6-1.2c-0.3-0.3-0.7-0.4-1.2-0.4c-0.9,0-1.5,0.5-1.8,1.6
		c-0.1,0.4-0.1,0.8-0.1,1.4c0,0.5,0,1,0.1,1.4c0.1,0.5,0.3,0.9,0.7,1.2c0.3,0.3,0.7,0.4,1.2,0.4
		C221.1,249.9,221.5,249.7,221.8,249.4z"/>
	<path d="M238.4,241.7c0.8,0.8,1.2,1.9,1.2,3.2v7.9c0,0.1,0,0.1-0.1,0.2c-0.1,0.1-0.1,0.1-0.2,0.1h-3.4c-0.1,0-0.1,0-0.2-0.1
		c-0.1-0.1-0.1-0.1-0.1-0.2v-7c0-0.5-0.2-1-0.5-1.3c-0.3-0.4-0.7-0.5-1.2-0.5c-0.5,0-0.9,0.2-1.2,0.5c-0.3,0.3-0.5,0.8-0.5,1.4v7
		c0,0.1,0,0.1-0.1,0.2c-0.1,0.1-0.1,0.1-0.2,0.1h-3.4c-0.1,0-0.1,0-0.2-0.1c-0.1-0.1-0.1-0.1-0.1-0.2v-11.8c0-0.1,0-0.1,0.1-0.2
		c0.1-0.1,0.1-0.1,0.2-0.1h3.4c0.1,0,0.1,0,0.2,0.1c0.1,0.1,0.1,0.1,0.1,0.2v0.9c0,0.1,0,0.1,0,0.1c0,0,0.1,0,0.1-0.1
		c0.6-0.9,1.6-1.4,2.9-1.4C236.6,240.5,237.6,240.9,238.4,241.7z"/>
	<path d="M258.7,241.6c0.7,0.8,1.1,1.8,1.1,3.2v7.9c0,0.1,0,0.1-0.1,0.2s-0.1,0.1-0.2,0.1h-3.4c-0.1,0-0.1,0-0.2-0.1
		s-0.1-0.1-0.1-0.2v-7.1c0-0.5-0.1-1-0.4-1.3c-0.3-0.3-0.7-0.5-1.1-0.5s-0.8,0.2-1.1,0.5c-0.3,0.3-0.4,0.8-0.4,1.3v7.1
		c0,0.1,0,0.1-0.1,0.2s-0.1,0.1-0.2,0.1H249c-0.1,0-0.1,0-0.2-0.1s-0.1-0.1-0.1-0.2v-7.1c0-0.5-0.1-1-0.4-1.3
		c-0.3-0.3-0.7-0.5-1.1-0.5c-0.4,0-0.8,0.1-1.1,0.4c-0.3,0.3-0.5,0.6-0.5,1.1v7.4c0,0.1,0,0.1-0.1,0.2c-0.1,0.1-0.1,0.1-0.2,0.1
		h-3.4c-0.1,0-0.1,0-0.2-0.1c-0.1-0.1-0.1-0.1-0.1-0.2v-11.8c0-0.1,0-0.1,0.1-0.2c0.1-0.1,0.1-0.1,0.2-0.1h3.4c0.1,0,0.1,0,0.2,0.1
		c0.1,0.1,0.1,0.1,0.1,0.2v1.1c0,0.1,0,0.1,0,0.1c0,0,0.1,0,0.1-0.1c0.6-1.1,1.6-1.6,3.1-1.6c0.8,0,1.5,0.2,2.1,0.5
		c0.6,0.4,1.1,0.9,1.4,1.5c0,0.1,0.1,0.1,0.1,0c0.3-0.7,0.8-1.2,1.4-1.5c0.6-0.3,1.3-0.5,2-0.5C257.1,240.5,258,240.9,258.7,241.6z"
		/>
	<path d="M273.3,247.7c0,0.2-0.1,0.3-0.3,0.3h-7.3c0,0-0.1,0-0.1,0c0,0,0,0.1,0,0.1c0,0.2,0.1,0.4,0.2,0.7c0.2,0.3,0.5,0.6,0.9,0.8
		c0.4,0.2,0.9,0.3,1.4,0.3c1,0,1.8-0.3,2.4-1c0.1-0.1,0.1-0.1,0.2-0.1c0.1,0,0.1,0,0.2,0.1l1.8,2.1c0.1,0,0.1,0.1,0.1,0.2
		c0,0.1,0,0.1-0.1,0.2c-0.6,0.6-1.3,1.1-2.1,1.4c-0.8,0.3-1.7,0.5-2.7,0.5c-1.5,0-2.7-0.3-3.7-0.9c-1-0.6-1.7-1.5-2.2-2.7
		c-0.3-0.8-0.5-1.8-0.5-3c0-0.8,0.1-1.6,0.4-2.4c0.4-1.2,1.1-2.1,2.1-2.8c1-0.7,2.1-1,3.4-1c1.1,0,2,0.2,2.8,0.7
		c0.8,0.5,1.5,1.1,2,1.9c0.5,0.8,0.9,1.7,1,2.7C273.3,246.3,273.3,246.9,273.3,247.7z M265.7,245.1c-0.1,0.2-0.1,0.3-0.1,0.5
		c0,0.1,0,0.1,0.1,0.1h3.4c0.1,0,0.1,0,0.1-0.1c0-0.1,0-0.3-0.1-0.5c-0.1-0.4-0.3-0.7-0.6-0.9s-0.7-0.3-1.1-0.3
		C266.5,243.9,265.9,244.3,265.7,245.1z"/>
	<path d="M285,241.7c0.8,0.8,1.2,1.9,1.2,3.2v7.9c0,0.1,0,0.1-0.1,0.2c-0.1,0.1-0.1,0.1-0.2,0.1h-3.4c-0.1,0-0.1,0-0.2-0.1
		s-0.1-0.1-0.1-0.2v-7c0-0.5-0.2-1-0.5-1.3c-0.3-0.4-0.7-0.5-1.2-0.5c-0.5,0-0.9,0.2-1.2,0.5c-0.3,0.3-0.5,0.8-0.5,1.4v7
		c0,0.1,0,0.1-0.1,0.2c-0.1,0.1-0.1,0.1-0.2,0.1h-3.4c-0.1,0-0.1,0-0.2-0.1s-0.1-0.1-0.1-0.2v-11.8c0-0.1,0-0.1,0.1-0.2
		c0.1-0.1,0.1-0.1,0.2-0.1h3.4c0.1,0,0.1,0,0.2,0.1c0.1,0.1,0.1,0.1,0.1,0.2v0.9c0,0.1,0,0.1,0,0.1c0,0,0.1,0,0.1-0.1
		c0.6-0.9,1.6-1.4,2.9-1.4C283.1,240.5,284.2,240.9,285,241.7z"/>
	<path d="M295.7,243.8c-0.1,0.1-0.1,0.1-0.2,0.1h-2.2c-0.1,0-0.1,0-0.1,0.1v4.4c0,0.9,0.4,1.4,1.1,1.4h0.9c0.1,0,0.1,0,0.2,0.1
		c0.1,0.1,0.1,0.1,0.1,0.2v2.8c0,0.2-0.1,0.3-0.3,0.3c-0.8,0-1.3,0-1.7,0c-1.4,0-2.4-0.2-3.1-0.7s-1-1.3-1-2.5v-6
		c0-0.1,0-0.1-0.1-0.1h-1.4c-0.1,0-0.1,0-0.2-0.1c-0.1-0.1-0.1-0.1-0.1-0.2v-2.6c0-0.1,0-0.1,0.1-0.2c0.1-0.1,0.1-0.1,0.2-0.1h1.4
		c0.1,0,0.1,0,0.1-0.1v-2.9c0-0.1,0-0.1,0.1-0.2c0.1-0.1,0.1-0.1,0.2-0.1h3.2c0.1,0,0.1,0,0.2,0.1c0.1,0.1,0.1,0.1,0.1,0.2v2.9
		c0,0.1,0,0.1,0.1,0.1h2.2c0.1,0,0.1,0,0.2,0.1c0.1,0.1,0.1,0.1,0.1,0.2v2.6C295.8,243.6,295.7,243.7,295.7,243.8z"/>
	<path d="M305.4,241c0.9,0.4,1.5,0.9,2,1.5c0.5,0.6,0.7,1.3,0.7,2.1v8.2c0,0.1,0,0.1-0.1,0.2s-0.1,0.1-0.2,0.1h-3.4
		c-0.1,0-0.1,0-0.2-0.1c-0.1-0.1-0.1-0.1-0.1-0.2v-0.8c0-0.1,0-0.1,0-0.1c0,0-0.1,0-0.1,0.1c-0.6,0.9-1.6,1.3-3.1,1.3
		c-1.3,0-2.3-0.3-3.1-0.9s-1.1-1.5-1.1-2.7c0-1.2,0.4-2.2,1.3-2.9c0.9-0.7,2.1-1,3.7-1h2.3c0.1,0,0.1,0,0.1-0.1v-0.5
		c0-0.4-0.1-0.8-0.4-1s-0.7-0.4-1.2-0.4c-0.4,0-0.7,0.1-1,0.2c-0.3,0.1-0.5,0.3-0.5,0.6c-0.1,0.2-0.2,0.3-0.3,0.2l-3.5-0.5
		c-0.2,0-0.3-0.1-0.3-0.2c0.1-0.7,0.3-1.3,0.8-1.9c0.5-0.6,1.1-1,2-1.3s1.7-0.5,2.7-0.5C303.6,240.5,304.6,240.6,305.4,241z
		 M303.7,249.9c0.4-0.3,0.6-0.7,0.6-1.2v-0.6c0-0.1,0-0.1-0.1-0.1h-1.4c-0.6,0-1.1,0.1-1.4,0.3c-0.3,0.2-0.5,0.5-0.5,0.9
		c0,0.4,0.1,0.6,0.4,0.8c0.2,0.2,0.6,0.3,1,0.3C302.8,250.4,303.3,250.3,303.7,249.9z"/>
	<path d="M310.3,253c-0.1-0.1-0.1-0.1-0.1-0.2v-16.2c0-0.1,0-0.1,0.1-0.2s0.1-0.1,0.2-0.1h3.4c0.1,0,0.1,0,0.2,0.1s0.1,0.1,0.1,0.2
		v16.2c0,0.1,0,0.1-0.1,0.2s-0.1,0.1-0.2,0.1h-3.4C310.4,253.1,310.3,253,310.3,253z"/>
	<path d="M216.5,265.7c0.8,0.4,1.5,1.1,1.9,1.9s0.7,1.7,0.7,2.8c0,1-0.2,2-0.7,2.8c-0.5,0.8-1.1,1.4-2,1.8c-0.9,0.4-1.9,0.6-3,0.6
		h-2.9c-0.1,0-0.1,0-0.1,0.1v5.8c0,0.1,0,0.1-0.1,0.2c-0.1,0.1-0.1,0.1-0.2,0.1h-3.4c-0.1,0-0.1,0-0.2-0.1c-0.1-0.1-0.1-0.1-0.1-0.2
		v-16.2c0-0.1,0-0.1,0.1-0.2c0.1-0.1,0.1-0.1,0.2-0.1h6.9C214.7,265.1,215.7,265.3,216.5,265.7z M214.6,272c0.4-0.4,0.6-0.8,0.6-1.4
		c0-0.6-0.2-1.1-0.6-1.5c-0.4-0.4-0.9-0.6-1.6-0.6h-2.5c-0.1,0-0.1,0-0.1,0.1v3.8c0,0.1,0,0.1,0.1,0.1h2.5
		C213.6,272.5,214.2,272.3,214.6,272z"/>
	<path d="M221.9,280.9c-1-0.8-1.7-1.8-2-3.1c-0.2-0.7-0.3-1.4-0.3-2.2c0-0.9,0.1-1.7,0.3-2.3c0.4-1.3,1.1-2.3,2.1-3s2.2-1.1,3.6-1.1
		c1.4,0,2.6,0.4,3.6,1.1s1.7,1.7,2,2.9c0.2,0.7,0.3,1.5,0.3,2.3c0,0.7-0.1,1.4-0.3,2.1c-0.3,1.3-1,2.4-2,3.2c-1,0.8-2.2,1.2-3.7,1.2
		C224.1,282.1,222.9,281.7,221.9,280.9z M226.7,278.2c0.3-0.3,0.5-0.7,0.7-1.2c0.1-0.4,0.1-0.9,0.1-1.4c0-0.5-0.1-0.9-0.2-1.4
		c-0.1-0.5-0.3-0.9-0.6-1.2c-0.3-0.3-0.7-0.4-1.2-0.4c-0.9,0-1.5,0.5-1.8,1.6c-0.1,0.4-0.1,0.8-0.1,1.4c0,0.5,0,1,0.1,1.4
		c0.1,0.5,0.3,0.9,0.7,1.2s0.7,0.4,1.2,0.4C226,278.7,226.4,278.5,226.7,278.2z"/>
	<path d="M233.4,281.8c-0.1-0.1-0.1-0.1-0.1-0.2v-16.2c0-0.1,0-0.1,0.1-0.2c0.1-0.1,0.1-0.1,0.2-0.1h3.4c0.1,0,0.1,0,0.2,0.1
		c0.1,0.1,0.1,0.1,0.1,0.2v16.2c0,0.1,0,0.1-0.1,0.2c-0.1,0.1-0.1,0.1-0.2,0.1h-3.4C233.5,281.9,233.4,281.8,233.4,281.8z"/>
	<path d="M239.8,267.8c-0.4-0.4-0.6-0.9-0.6-1.5c0-0.6,0.2-1.1,0.6-1.5c0.4-0.4,0.9-0.6,1.5-0.6c0.6,0,1.1,0.2,1.5,0.6
		c0.4,0.4,0.6,0.9,0.6,1.5c0,0.6-0.2,1.1-0.6,1.5c-0.4,0.4-0.9,0.6-1.5,0.6C240.7,268.4,240.2,268.2,239.8,267.8z M239.4,281.8
		c-0.1-0.1-0.1-0.1-0.1-0.2v-11.8c0-0.1,0-0.1,0.1-0.2s0.1-0.1,0.2-0.1h3.4c0.1,0,0.1,0,0.2,0.1s0.1,0.1,0.1,0.2v11.8
		c0,0.1,0,0.1-0.1,0.2c-0.1,0.1-0.1,0.1-0.2,0.1h-3.4C239.5,281.9,239.4,281.8,239.4,281.8z"/>
	<path d="M247.6,281.1c-1-0.7-1.7-1.6-2.1-2.7c-0.3-0.8-0.5-1.7-0.5-2.8s0.2-2,0.5-2.8c0.4-1.1,1.1-2,2.1-2.6c1-0.6,2.1-0.9,3.5-0.9
		c1.3,0,2.5,0.3,3.5,1c1,0.7,1.7,1.5,2,2.5c0.1,0.3,0.2,0.6,0.2,0.9c0,0.2-0.1,0.3-0.3,0.3l-3.3,0.5h0c-0.1,0-0.2-0.1-0.3-0.2l0-0.2
		c0-0.1-0.1-0.2-0.1-0.3c-0.1-0.3-0.4-0.6-0.7-0.7s-0.6-0.3-1-0.3c-0.8,0-1.4,0.4-1.7,1.1c-0.2,0.4-0.3,1.1-0.3,1.8
		c0,0.7,0.1,1.3,0.2,1.8c0.3,0.8,0.9,1.2,1.7,1.2c0.4,0,0.8-0.1,1.1-0.3c0.3-0.2,0.5-0.5,0.6-0.9c0,0,0-0.1,0-0.1c0,0,0,0,0-0.1
		c0-0.2,0.2-0.3,0.3-0.2l3.4,0.5c0.2,0,0.2,0.1,0.2,0.3c0,0.2,0,0.5-0.1,0.8c-0.4,1.1-1.1,2-2.1,2.6c-1,0.6-2.2,0.9-3.5,0.9
		C249.7,282.1,248.6,281.7,247.6,281.1z"/>
	<path d="M258,286.6c0-0.1,0-0.1,0-0.2v-2.7c0-0.2,0.1-0.3,0.3-0.3c1,0,1.8-0.1,2.2-0.3c0.4-0.2,0.7-0.6,0.8-1.2c0,0,0-0.1,0-0.1
		l-3.9-12c0,0,0-0.1,0-0.1c0-0.1,0.1-0.2,0.3-0.2h3.6c0.2,0,0.3,0.1,0.3,0.2l1.7,7.1c0,0.1,0,0.1,0.1,0.1c0,0,0.1,0,0.1-0.1l1.7-7.1
		c0-0.2,0.2-0.2,0.3-0.2h3.6c0.1,0,0.2,0,0.2,0.1s0.1,0.1,0,0.3l-4.1,12.3c-0.4,1.2-0.8,2.1-1.3,2.7c-0.4,0.6-1.1,1.1-1.9,1.4
		c-0.8,0.3-2,0.4-3.6,0.4h-0.2C258.1,286.6,258,286.6,258,286.6z"/>
</g>
<g>
	<path class="st3" d="M79,147.1c5.2-9,12-10.7,12-10.7c-9.2-8.3-14.8-3.5-17.6,0c-4,5-13.5,21.6-13.5,21.6l9.8,5.9
		C69.7,163.9,73.9,155.9,79,147.1z M83,145.8l6.8,11.2l-3.2,3.4l13.4,2.2l4.1-12.4l-4.6,1L92,139.4C86.1,140.9,83,145.8,83,145.8z
		 M107.1,184.6c5.5,8.7,4,15.7,4,15.7c11.5-4.5,9.8-11.7,8-15.7c-2.6-5.8-12.9-22-12.9-22l-9.7,6C96.5,168.6,101.7,176,107.1,184.6z
		 M93.4,189.8l-1.5-4.4l-8.1,11l9.1,9.3l1.2-4.5l13.8-1.3c1.4-6-1.5-11-1.5-11L93.4,189.8z M52.7,200.2c6.3,1.1,25.3,1.2,25.3,1.2
		l0.3-11.5c0,0-9,0.2-19.1,0.1c-10.3-0.1-15.2-5.3-15.2-5.3C41.4,196.9,48.3,199.4,52.7,200.2z M56.1,187.1l6.4-11.5l4.5,1.2
		l-4.6-12.9l-12.7,2.5l3.1,3.5l-6.5,12.4C50.3,186.8,56.1,187.1,56.1,187.1z"/>
</g>
<path class="st3" d="M279.4,344.5c-21.8,6.6-43.7,21.5-51.2,35.8c-0.2,0.4-0.4,0.8-0.6,1.1c5.5,2.1,10.3,4.7,13.9,7.8
	c0.5-1.5,1.1-2.9,1.8-4.3c0.4-0.9,0.9-1.8,1.4-2.6l0.7-1.3l0.7-1.2c0.5-0.8,1-1.6,1.5-2.3c0.5-0.8,1-1.5,1.5-2.2l1.4-2l1.4-1.8
	c0.9-1.2,1.7-2.2,2.5-3.2c0.7-0.9,1.4-1.7,1.9-2.4l1.7-2.1l-1.2,2.4c-0.4,0.8-0.8,1.7-1.3,2.7c-0.5,1.1-1.1,2.3-1.6,3.6l-0.9,2.1
	l-0.9,2.2c-0.3,0.8-0.6,1.5-0.9,2.3c-0.3,0.8-0.6,1.6-0.9,2.5l-0.4,1.3l-0.4,1.3c-0.3,0.9-0.4,1.7-0.6,2.6c-0.4,1.8-0.7,3.5-0.7,5.2
	c-0.1,1.7,0,3.3,0.3,4.9c0.3,1.4,0.7,2.8,1.1,4.4c1.5,4.6,1.9,9.6,0.8,14.6c-0.5,2.3-1.2,4.4-2.2,6.3c11-0.9,22.3-7.9,24.7-21.2
	C276.3,382.3,264.3,352.5,279.4,344.5z M240.1,404.2c-0.3-0.4-1.1-0.3-1.3,0.2l0,0.1c-0.3-0.1-0.7,0-0.9,0.3c-1,1.5-2.1,2.1-1.7,4.1
	c0.3,1.5,0.8,3.1,2.6,3.4c1,0.1,2-1.1,2.2,1.4c0.1,1-0.2,2-0.6,2.9c-0.3,0.8-0.5,1.6-0.4,2.4c-2.9,3.8-7.5,6.2-12.6,6.2
	c-0.5,0-1.1,0-1.6-0.1c0.4-0.6,0.8-1.2,1.2-1.7l0.1,0c1.1-0.4,2-1.4,2.9-2.2c0.2,0,0.4,0,0.6-0.2c0.3-0.3,0.5-0.5,0.8-0.9
	c0.1-0.1,0.1-0.3,0.1-0.4c0.5-0.7,1-1.3,1.3-2c0.3-0.6-0.1-1.2-0.7-1.2c-0.7-0.1-1.4,0.1-2-0.2c-0.3-0.2-0.7-0.4-1.1-0.7l-0.1-0.1
	c-0.5-0.6-1-1.1-1.8-1.2l-0.1-0.1c-0.8-0.7-2.1-0.8-3.2-0.9c-0.3,0-0.5,0.1-0.6,0.3c-0.4-0.4-0.8-0.8-1.2-1.1l0,0
	c0-0.3,0.1-0.7-0.2-1c-0.4-0.3-1.1-0.4-0.9-1.1c0.1-0.3-0.3-0.7-0.6-0.5c-0.5,0.4-1.4,0.7-1.8,0c0.1-0.1,0.2-0.3,0.2-0.5
	c0.2-2,1.8-1.3,2.9-1.7c0,0.1,0,0.2,0,0.3l0,0.1c-0.3,0.3,0,0.8,0.4,0.6l0,0l0,0c0.2,0,0.3-0.1,0.4-0.3c0.1-0.3-0.1-0.4,0-0.7
	c0.1-0.3,0.4-0.6,0.6-0.8c0.4-0.4,0.9-0.9,1.1-1.5c0.1-0.2,0-0.3-0.1-0.4c0.5-0.6,1-1.2,1.7-1.6c0.2-0.1,0.3-0.3,0.4-0.6
	c0,0,0.1-0.1,0.1-0.1h0c-0.1,0.2-0.2,0.5,0.1,0.6l0.1,0.1c0,0.1-0.1,0.3-0.1,0.4c0,0.4,0.4,0.5,0.7,0.3c0.3-0.3,0.6-0.5,0.9-0.8
	c0.2-0.1,0.1-0.4,0-0.6c-0.2-0.1-0.4-0.1-0.5,0l0-0.4c0-0.2-0.1-0.4-0.3-0.4c-0.1,0-0.2,0-0.3,0c0.3,0,0.6-0.1,1-0.2
	c0.1,0,0.2-0.1,0.3-0.2c0.2,0,0.5,0.1,0.7,0.3c0.1,0,0.1,0,0.1,0.1c0,0.1,0,0.1-0.1,0.2c-0.3,0.4,0.4,0.8,0.7,0.4
	c0.7-1.1-0.4-1.8-1.4-2.1c-0.1,0-0.1-0.1-0.1-0.1l-0.4-0.9c0-0.6-0.6-0.9-1-0.8l-1.5-0.5c-0.4-0.2-1.1,0-1.2,0.5
	c-0.1,0.4-0.1,0.7-0.1,1.1l0.1,0.9c-0.7,0.3-1.3,0.1-1.8-0.4c-0.3-0.3-1-0.3-1.4-0.4c-0.1,0-0.3-0.2-0.4-0.5
	c0.1-0.1,0.1-0.2,0.1-0.3c0.1-0.9,1.3-0.8,1.6-1.6c0.1-0.2-0.1-0.4-0.3-0.5c-0.3-0.1-0.4-0.4-0.5-0.7c-0.1-0.5-0.8-0.3-0.8,0.1
	c0,0.9-0.4,1.1-1.3,1.1c-0.2,0-0.3,0-0.5,0c0.4-0.4,0.8-0.8,1.2-1.2c0.1-0.1,0.2-0.3,0.2-0.4c2.2-1.1,4.7-1.8,7.3-1.8
	c0.2,0,0.5,0,0.7,0c0.5,2.1,1.5,3.8,3.7,4.5c0.3,0.1,0.6-0.2,0.5-0.5c-0.7-1.9,1-1.3,2-1.8c0.1-0.1,0.3-0.2,0.4-0.4
	c1.9,1,3.7,2.4,5,4.1c-0.1,0.1-0.2,0.3-0.1,0.5c0.5,0.7-0.8,0.8-1.3,1c-0.6,0.3-0.6,0.6-0.6,1.1c-0.1,0-0.2,0.1-0.2,0.3
	c0,0.3,0,0.6,0,0.9c0,0.3,0.3,0.4,0.5,0.4c0.1,0.1,0.2,0.2,0.3,0.3c0.2,0.2,0.6,0.1,0.7-0.2c0.1-0.2,0.1-0.5,0.1-0.7
	c0.1-0.9,1.5,0.2,1.6,0.4c0.6,0.7,0.9,1.5,1.6,2.1c0.1,0.1,0.2,0.1,0.3,0.1l0,0.2l-0.2-0.1C241.5,405.6,240.9,404.9,240.1,404.2z
	 M224,424.6c-7.1-1.5-12.4-7.7-12.4-15.2c0-2.7,0.7-5.3,2-7.5c0.2,0.2,0.6,0.3,0.9,0.4l-0.1,0.2c-0.3,0.8-0.2,1.8-0.3,2.6
	c-0.2,1.2,0.3,1.4,1,1.6c0,0.2,0.1,0.3,0.2,0.5c0.2,0.2,0.3,0.4,0.5,0.5c0.2,0.9,0.7,1.8,1.3,2.4c0.4,0.4,0.8,0.4,1.1,0.2l0.1,0.1
	c0.1,0.1,0.3,0.3,0.4,0.4c0.4,0.3,0.8,0.4,1.3,0.5c0.7,0.2,1.1,0.8,1.6,1.3c0.3,0.3,0.7,0.6,1,0.9c-0.1,0.1-0.1,0.1-0.1,0.2
	c-0.9,1.6-1.4,3.3,0,4.7c0.5,0.5,0.9,0.7,1.3,1c-0.2,1.1,0,2.2,0.3,3.3c-0.1,0.4-0.1,0.8-0.1,1.2c0,0.2,0.1,0.3,0.2,0.4L224,424.6z
	 M215.6,398L215.6,398l-0.1,0.1L215.6,398z M238.4,392.6c-10.8-9.2-28.2-11.9-41.9-12.4c12.2,0.4,11.1,18.4,11.5,26.6
	c0.3,6.7,1.5,11,5.2,15.3c4.5,5.3,11.1,6.9,17.3,6.1c2.3-0.3,6.1-1.7,9.1-3.6C249.5,418.2,248.7,401.3,238.4,392.6z"/>
<g>
	<path class="st4" d="M260.9,206.1c-1.8-2.7-7.8-4.6-11.4-4.2c-3.9,0.4-6.8,2-9.8,6.5c-5.7-1.3-12.5-1.9-14.6-0.7
		c-2.1,1.2-3,5.3-0.5,4.9c2.5-0.4,7.1-0.1,10.8,1.3c2,0.8,5.2,2.1,8.6,2.7c-3.5,0.2-6.9-0.8-9.5-1.8c-3.8-1.5-8.5-1.8-11-1.4
		c-1.9,0.3-1.9-2-0.8-3.7c-2.3-2.1-6.6-5.9-8.1-6c-2.1-0.1-5.1,1.9-3.9,3.1c1.2,1.2,4.2,4,4.6,4.5c0.5,0.5,4.4,4.4,4.8,4.8
		c0.5,0.4,4.2,1.1,5.6,1.5c2.8,0.4,6.6,3.4,7.7,3.5c3.4,0,15.3-3,18.3-1.2c3,1.8,4.5,2.7,4.5,2.7l10.5-10.8L260.9,206.1z"/>
	<g>
		<path class="st4" d="M257,140.8c0,0-0.4,8.6-12,14c-11.5,5.3-15.7,14.5-8.7,22.6c-3.7,3.7-6.6,8.4-6.8,12.6
			c-0.4,4.5,0.6,7.4,0.6,7.6c0.2,0.8,0.8,1.6,1.2,1.4c0.4-0.1,0.5-1.1,0.3-1.8c0-0.2-1-3-0.7-7.1c0.1-4.2,3.1-9,7.1-12.9
			c3.9-3.9,7.9-7.8,10.4-11.2c0.3-0.5,0.6-0.9,0.9-1.3c-1.7,2.9-4.2,6.9-6.3,9.4c-1.6,1.9-2.5,3.7-3,5.1c14.3,4.9,19-7.5,20.6-16.5
			C262.4,152.9,257,140.8,257,140.8z"/>
		<path class="st4" d="M228.8,185.4c-1.9-2.6-5.5-4.4-8.6-6.5c-3.2-2.1-5.7-5.1-6.5-7.9c-0.4-1.2-0.6-2.2-0.7-3
			c1.5,5.9,6.7,8.8,8.6,9.7c2.2-3.3,2.2-8.7-2.5-12.8c-5.6-4.9-5.6-9.5-5.6-9.5s-3.6,5.5-5.1,11.7c-1.5,6.1,0.8,18.3,11.4,12.5
			c3.2,2.3,6.6,4.2,8.2,6.6c1.6,2.3,1.5,4.4,1.5,4.5c0,0.5,0.3,1.1,0.6,1.1c0.3,0,0.6-0.6,0.6-1.2
			C230.6,190.4,230.8,188,228.8,185.4z"/>
		<path class="st5" d="M238.8,202.4c-0.2,0-0.4,0-0.6,0.1c-0.1-0.9-0.6-1.6-1.3-1.9l0-0.1c0-0.5-0.4-0.9-0.9-0.9
			c-0.3,0-0.6,0.2-0.8,0.4c-0.1,0-0.2,0-0.3-0.1c-0.3-0.5-0.9-0.9-1.5-1c-0.1-0.7-0.7-1.3-1.4-1.3c-0.4,0-0.7,0.1-1,0.4
			c-0.2-0.2-0.6-0.3-0.9-0.3c-0.7,0-1.3,0.6-1.4,1.3l-0.1,0c-0.6,0-1.2,0.4-1.5,0.9c-1.2,0.3-2.1,1.2-2.4,2.4
			c-0.8,0.2-1.4,0.9-1.4,1.7c0,1,0.8,1.8,1.8,1.8c0.4,0,0.7-0.1,1-0.3c0.5,0.3,1,0.5,1.6,0.5c0.4,0,0.7-0.1,1.1-0.2
			c0.6,0.5,1.4,0.8,2.2,0.8c0.7,0,1.4-0.3,2-0.6c0.4,0.3,0.9,0.4,1.4,0.4c0.4,0,0.7-0.1,1.1-0.2c0.3,0.2,0.7,0.3,1,0.3
			c0.6,0,1.1-0.2,1.5-0.6c0.3,0.2,0.6,0.3,1,0.3c1,0,1.8-0.8,1.8-1.9C240.6,203.2,239.8,202.4,238.8,202.4z"/>
	</g>
</g>
</svg>
