<?xml version="1.0" encoding="utf-8"?>
<!-- Generator: Adobe Illustrator 21.0.0, SVG Export Plug-In . SVG Version: 6.00 Build 0)  -->
<svg version="1.1" id="圖層_1" xmlns="http://www.w3.org/2000/svg" xmlns:xlink="http://www.w3.org/1999/xlink" x="0px" y="0px"
	 viewBox="0 0 85 63" style="enable-background:new 0 0 85 63;" xml:space="preserve">
<style type="text/css">
	.st0{fill-rule:evenodd;clip-rule:evenodd;fill:#018AF0;}
</style>
<path class="st0" d="M15.4,40c-1.9,0-3.5,1.6-3.5,3.5c0,1.9,1.6,3.5,3.5,3.5s3.5-1.6,3.5-3.5C18.9,41.6,17.4,40,15.4,40z M15.4,48.4
	c-2.7,0-4.9-2.2-4.9-4.8c0-1.5,0.7-2.8,1.7-3.7c0.6-0.5,1.3-0.9,2.1-1.1c0.3-0.1,0.7-0.1,1-0.1c1.1,0,2.2,0.4,3,1l1.7,5.2
	C19.5,46.9,17.6,48.4,15.4,48.4z M23.9,37.5c-1.4-1.9-3.4-3.4-5.8-4c-0.9-0.2-1.8-0.4-2.7-0.4c-1.2,0-2.4,0.2-3.6,0.6
	c-0.8,0.3-1.5,0.6-2.1,1.1c-1.6,1-2.9,2.5-3.7,4.2c-0.7,1.4-1,2.9-1,4.5c0,5.7,4.7,10.4,10.4,10.4c5,0,9.3-3.6,10.2-8.3l3.8-1l4,3.8
	l9.1,0.2l-9.6-12.4L23.9,37.5z M69.4,40c-1.9,0-3.5,1.5-3.5,3.4c0,1.9,1.5,3.4,3.5,3.4c1.9,0,3.4-1.5,3.4-3.4
	C72.8,41.6,71.3,40,69.4,40z M69.4,48.2c-2.7,0-4.8-2.1-4.8-4.8c0-1.4,0.7-2.7,1.7-3.6l0.1,0.3c0.6-0.5,1.3-0.9,2.1-1l-0.1-0.3
	c0.3-0.1,0.7-0.1,1-0.1c2.7,0,4.8,2.2,4.8,4.8C74.2,46.1,72.1,48.2,69.4,48.2z M72.4,33.3l1.3-1l0,0l0,0l0,0v0v0l0,0l0,0l0,0l0,0
	l0,0c-1.3-0.5-2.8-0.8-4.2-0.8c-1.5,0-3,0.3-4.3,0.8L64.5,31c2.1-1.2,4.8-2.4,7.9-3.4c1.4-4.1-5.2-10.5-7.1-13.5
	c-0.9-1.4-3-4.6-4.3-5c-0.7,1.7,2.6,9.7,0.8,11.6c-3,1.1-1.8-6.6-12-4.7c-0.3,0.2,0.2,1.5,0.2,1.5l3.7-0.1l0.5,1.4l1.1-0.4l0.9,1.8
	c0,0-1.6,1.2-2.2,1.5c-5.5-4.7-13.9-4.9-20,4.2c-2.3,0.1-9-0.7-9-0.7l-2-3.6c0,0-11.1-2.2-14.9-1.1c-0.7,0.8-0.2,2.7,0.5,3.5
	c8.3,3.5,26.7,12,26.7,12l10,12.8l13.3,0.3l-2.9-9.4c0,0,1.6-3.6,6.8-7.2l0.5,0.9l-0.6,0.4c-2,1.4-3.5,3.4-4.4,5.7
	c0,0.1,0,0.2,0.1,0.2l0,0c0.1,0,0.1,0,0.1-0.1l0-0.1l1.3,0c-0.6,1.3-0.8,2.7-0.8,4.1c0,5.8,4.8,10.5,10.6,10.5S80,49.3,80,43.5
	C80,38.8,76.9,34.7,72.4,33.3z"/>
</svg>
