<?xml version="1.0" encoding="utf-8"?>
<!-- Generator: Adobe Illustrator 21.0.0, SVG Export Plug-In . SVG Version: 6.00 Build 0)  -->
<svg version="1.1" id="圖層_1" xmlns="http://www.w3.org/2000/svg" xmlns:xlink="http://www.w3.org/1999/xlink" x="0px" y="0px"
	 viewBox="0 0 85 63" style="enable-background:new 0 0 85 63;" xml:space="preserve">
<style type="text/css">
	.st0{fill-rule:evenodd;clip-rule:evenodd;fill:#018AF0;}
</style>
<path class="st0" d="M54.7,37.2c0-2.9,7.5-4.6,9.4-4.8c1.4-0.1,2.5,1.2,2.5,2.7v3.3c0,1.5-1.1,2.8-2.5,2.8c-2.7,0-9.4,1.3-9.4-2.8
	V37.2z M42.5,26.2H20.4C22.1,19.3,25.5,11,31.2,11h11.2h0h0h11.2c5.7,0,9.1,8.3,10.8,15.2H42.5L42.5,26.2L42.5,26.2z M30.3,37.2v1.2
	c0,4-6.8,2.8-9.4,2.8c-1.4,0-2.5-1.2-2.5-2.8v-3.3c0-1.5,1.1-2.9,2.5-2.7C22.8,32.6,30.3,34.3,30.3,37.2z M12.3,29.5
	c-2.3,5.3,0,10.5,0,15.8c0,1,0.7,1.8,1.6,1.8v5.4c0,0.8,0.6,1.4,1.3,1.4h8.9c0.7,0,1.3-0.6,1.3-1.4v-5.4h17h17v5.4
	c0,0.8,0.6,1.4,1.3,1.4h8.9c0.7,0,1.3-0.6,1.3-1.4v-5.4c0.9,0,1.6-0.8,1.6-1.8c0-5.3,2.3-10.5,0-15.8c-0.8-1.8-2.4-3.5-4-5.1h0.9
	h4.5c0.7,0,1.3-0.6,1.3-1.4v-2.6c0-0.8-0.6-1.4-1.3-1.4h-4.5c-0.7,0-1.3,0.6-1.3,1.4v1.4C68,22,67.7,22,67.2,22c-3-6.2-5-13-11.8-13
	H42.5H29.6c-6.8,0-8.8,6.8-11.8,13c-0.5,0-0.8,0-1.3-0.2v-1.4c0-0.8-0.6-1.4-1.2-1.4h-4.6c-0.7,0-1.3,0.6-1.3,1.4v2.6
	c0,0.8,0.6,1.4,1.3,1.4h4.6h0.9C14.7,26,13.1,27.7,12.3,29.5z"/>
</svg>
