<?xml version="1.0" encoding="utf-8"?>
<!-- Generator: Adobe Illustrator 21.0.0, SVG Export Plug-In . SVG Version: 6.00 Build 0)  -->
<svg version="1.1" id="圖層_1" xmlns="http://www.w3.org/2000/svg" xmlns:xlink="http://www.w3.org/1999/xlink" x="0px" y="0px"
	 viewBox="0 0 85 63" style="enable-background:new 0 0 85 63;" xml:space="preserve">
<style type="text/css">
	.st0{fill-rule:evenodd;clip-rule:evenodd;fill:#018AF0;}
</style>
<path class="st0" d="M43.5,33.3c0.3,0.1,0.5,0.2,0.8,0.2l0.4,0.1l0.1,0c-0.5-2.5-0.2-4.3-0.2-4.4c1.1-5.5,6.1-9.6,11.9-9.6
	c1.1,0,2.1,0.2,3.2,0.4L46.2,7c-1.7-1.7-4-2.7-6.4-3c-0.3,0-0.7,0-1,0c-5.8,0-10.5,4.6-10.5,10.2c0,2.7,1.1,5.3,3.1,7.2L43.5,33.3z
	 M31.7,59c11.2,0,20.7-4,20.7-8.6v-4.5c-2.1,2.5-6.3,4.4-11.7,5.5c-2.8,0.6-5.8,0.9-9,0.9c-9.5,0-17.5-2.6-20.7-6.4v4.5
	C11,55,20.5,59,31.7,59z M52.2,43.3c0.1-0.1,0.1-0.2,0.1-0.4c0.1-0.3,0.2-0.7,0.2-1c0-2.3-2.4-4.6-6.5-6.2l-0.6-0.3
	c-0.4-0.1-0.7-0.3-1.1-0.4c-0.4-0.1-0.9-0.3-1.4-0.4c-3.3-0.9-7.2-1.4-11.1-1.4c-2.5,0-4.9,0.2-7.2,0.6l16.3,15.8
	C46.8,48.5,51.1,46,52.2,43.3z M31.7,50.6c2.5,0,4.9-0.2,7.2-0.6L22.6,34.3C15.7,35.7,11,38.8,11,42C11,46.7,20.5,50.6,31.7,50.6z
	 M70.9,31l-7.3-7.1l0,0c-2-1.7-4.5-2.7-7.1-2.7c-5,0-9.4,3.5-10.3,8.3c0,0-0.3,2.1,0.4,4.8c4.8,1.9,7.5,4.7,7.5,7.7v1.6l0.4,0.4
	c1.7,1.7,3.3,2.9,3.5,3c1.6,1,3.5,1.5,5.5,1.5c5.8,0,10.5-4.6,10.5-10.2C74,35.5,72.9,32.9,70.9,31z"/>
</svg>
