<?xml version="1.0" encoding="utf-8"?>
<!-- Generator: Adobe Illustrator 21.0.0, SVG Export Plug-In . SVG Version: 6.00 Build 0)  -->
<svg version="1.1" id="圖層_1" xmlns="http://www.w3.org/2000/svg" xmlns:xlink="http://www.w3.org/1999/xlink" x="0px" y="0px"
	 viewBox="0 0 85 63" style="enable-background:new 0 0 85 63;" xml:space="preserve">
<style type="text/css">
	.st0{fill-rule:evenodd;clip-rule:evenodd;fill:#018AF0;}
</style>
<path class="st0" d="M39.7,37l1-0.6l1-0.6l2.2,3.8l-0.1,0l-2.1,0.6L39.7,37z M33.7,34.2l-1.5-2.7c0.6-0.5,1.1-1.2,1.3-2
	c0.3-1,0.1-2-0.4-2.9l-5.4-9.3c-0.2-0.3-0.5-0.6-0.8-0.6c-0.4-0.1-0.7,0-1,0.1l-1.6,1l-1.7-2.9l1.2-0.7l7.3-4.3l1.7,2.9l-1.6,1
	c-0.6,0.4-0.9,1.2-0.5,1.9l5.4,9.3c0.5,0.9,1.3,1.5,2.3,1.8c0.3,0.1,0.7,0.1,1,0.1c0.5,0,1-0.1,1.4-0.3l1.5,2.7c0,0.1,0,0.2,0,0.2
	c0,0.1-0.1,0.2-0.1,0.2L41.4,30l-6.6,3.9l-0.6,0.4C34,34.4,33.8,34.3,33.7,34.2z M23.9,12.5l-4-3c2.2-2.1,4.8-3.7,7.7-4.5l0.6,5
	L23.9,12.5z M38.4,55.8c0,0.6-0.5,1.1-1.1,1.1c-0.6,0-1.1-0.5-1.1-1.1c0-0.6,0.5-1.1,1.1-1.1C38,54.7,38.4,55.2,38.4,55.8z M58,55.8
	c0-0.6,0.5-1.1,1.1-1.1s1.1,0.5,1.1,1.1c0,0.6-0.5,1.1-1.1,1.1S58,56.4,58,55.8z M51,44.4c1.3,0,2.4,1.1,2.4,2.4
	c0,1.4-1.1,2.5-2.4,2.5c-1.3,0-2.4-1.1-2.4-2.5C48.6,45.5,49.7,44.4,51,44.4z M55.2,30.3c0.6,0,1.1,0.5,1.1,1.1
	c0,0.6-0.5,1.1-1.1,1.1c-0.6,0-1.1-0.5-1.1-1.1C54.2,30.8,54.6,30.3,55.2,30.3z M64.1,38.1c0.4,0,0.7,0.3,0.7,0.7
	c0,0.4-0.3,0.7-0.7,0.7c-0.4,0-0.7-0.3-0.7-0.7C63.4,38.4,63.7,38.1,64.1,38.1z M62.8,20.2c-0.4,0-0.7-0.3-0.7-0.7s0.3-0.7,0.7-0.7
	c0.4,0,0.7,0.3,0.7,0.7S63.2,20.2,62.8,20.2z M69.3,8.9c-0.2-0.1-0.3-0.1-0.5-0.1l-10.8,3.6c-0.2,0.1-0.3,0.2-0.4,0.4l-2.7,7.8
	L47,27.4c-0.1,0.1-0.2,0.3-0.2,0.5l0.1,10.9l-1.9,0.6l-0.7-1.2l-1.7-2.9L43,35c0.8-0.5,1.1-1.6,0.6-2.4l-1.1-1.9l0.1-0.1
	c0.4-0.2,0.6-0.5,0.7-0.9c0.1-0.4,0-0.8-0.2-1.2L31.7,8.8l-0.8-6.2c-0.1-0.5-0.3-0.9-0.7-1.2c-0.4-0.3-0.9-0.4-1.4-0.3
	c-5.1,0.9-9.6,3.6-12.9,7.6C15.6,9,15.5,9.5,15.5,10c0.1,0.5,0.3,0.9,0.7,1.2l5,3.8l11.5,19.8c0.3,0.5,0.8,0.8,1.3,0.8
	c0.3,0,0.5-0.1,0.8-0.2l0.1-0.1l1.1,1.9c0.2,0.4,0.6,0.7,1.1,0.8c0.1,0,0.3,0.1,0.5,0.1c0.3,0,0.6-0.1,0.9-0.2l0.3-0.2l0.7,1.2
	l1.1,1.9l-1.8,0.5c-0.2,0-0.3,0.2-0.4,0.4l-2.9,8l-5.6-0.7c-0.3,0-0.5,0.1-0.6,0.3l-5.9,11.9c-0.1,0.2-0.1,0.4,0,0.6
	c0.1,0.2,0.3,0.3,0.5,0.3h45.1c0.3,0,0.6-0.3,0.6-0.6v-52C69.5,9.2,69.4,9,69.3,8.9z"/>
</svg>
