<?xml version="1.0" encoding="utf-8"?>
<!-- Generator: Adobe Illustrator 21.0.0, SVG Export Plug-In . SVG Version: 6.00 Build 0)  -->
<svg version="1.1" id="圖層_1" xmlns="http://www.w3.org/2000/svg" xmlns:xlink="http://www.w3.org/1999/xlink" x="0px" y="0px"
	 viewBox="0 0 85 63" style="enable-background:new 0 0 85 63;" xml:space="preserve">
<style type="text/css">
	.st0{fill-rule:evenodd;clip-rule:evenodd;fill:#018AF0;}
</style>
<path class="st0" d="M20.6,17.2c0.1,0.1,0.2,0.3,0.3,0.4l2.5,2.5c-1.4,2.1-2.4,4.5-3,7.1h-3.6c-1.1,0-1.9,0.9-1.9,1.9v6.2
	c0,1,0.8,1.9,1.9,1.9h3.6c0.6,2.6,1.6,4.9,3,7.1l-2.5,2.5c-0.7,0.7-0.7,1.9,0,2.6l4.4,4.4c0.7,0.7,1.9,0.7,2.6,0l2.5-2.5
	c2.2,1.4,4.6,2.3,7.2,2.9v3.5c0,1,0.9,1.9,1.9,1.9h5.8c1.1,0,1.9-0.9,1.9-1.9v-3.5c2.6-0.6,5-1.5,7.2-2.9l2.5,2.5
	c0.7,0.7,1.9,0.7,2.6,0l4.4-4.4c0.7-0.7,0.7-1.9,0-2.6l-2.5-2.5c1.4-2.2,2.4-4.5,3-7.1h3.6c1.1,0,1.9-0.8,1.9-1.9v-6.2
	c0-1-0.8-1.9-1.9-1.9h-3.6c-0.6-2.6-1.6-5-3-7.1l2.5-2.5c0.1-0.1,0.2-0.3,0.3-0.4H53.1c3.5,3.8,5,9.1,4.5,15
	c-0.7,8.3-6.8,15-15.1,15.1c-8.4-0.1-14.5-6.9-15.1-15.1c-0.5-5.9,1-11.2,4.5-15H20.6z M42.5,3.5c-5.8,11.1-11.3,16.4-11.4,24.8
	c-0.1,8.3,5.3,13.8,11.4,13.8S54,36.6,53.9,28.3C53.8,19.9,48.3,14.6,42.5,3.5z"/>
</svg>
