<?xml version="1.0" encoding="utf-8"?>
<!-- Generator: Adobe Illustrator 21.0.0, SVG Export Plug-In . SVG Version: 6.00 Build 0)  -->
<svg version="1.1" id="圖層_1" xmlns="http://www.w3.org/2000/svg" xmlns:xlink="http://www.w3.org/1999/xlink" x="0px" y="0px"
	 viewBox="0 0 85 63" style="enable-background:new 0 0 85 63;" xml:space="preserve">
<style type="text/css">
	.st0{fill-rule:evenodd;clip-rule:evenodd;fill:#018AF0;}
</style>
<path class="st0" d="M40.1,12.7c-0.3-0.7,0-1.6,0.8-1.9l5.4-2.2c0.2-0.1,0.4-0.1,0.6-0.1c0.6,0,1.1,0.3,1.4,0.9l0.3,0.7l-0.7,0.3
	l-6.7,2.8l0,0l-0.7,0.3L40.1,12.7z M54.1,49.6l-4.2-9.5c-0.3-0.6-0.2-1.3,0.3-1.8c2.1-2.6,5.3-4.1,8.7-4.1c0.4,0,0.8,0,1.2,0.1
	c0.7,0.1,1.2,0.5,1.5,1.1l4.2,9.5c0.3,0.6,0.2,1.3-0.3,1.8c-2.4,2.9-6.1,4.4-9.9,4C54.9,50.6,54.3,50.2,54.1,49.6z M44.1,20.9
	c0.5-1.4,1.6-2.5,3-3.1c1.4-0.6,3-0.5,4.4,0.1l0.7,1.2l2.2,3.7l0.1,0.2c-0.2,1.9-1.4,3.6-3.2,4.4c-1.8,0.8-3.9,0.4-5.5-0.8l-0.1-0.2
	L44.1,20.9z M32.8,2.2c0.2-0.6,0.8-1,1.4-1c0.2,0,0.3,0,0.5,0.1l5.6,1.8c0.4,0.1,0.7,0.4,0.9,0.7s0.2,0.7,0.1,1.1L41,5.7l-0.8-0.2
	l-6.9-2.2h0L32.5,3L32.8,2.2z M36.7,19l0,0.2c-1.4,1.3-3.5,1.8-5.4,1.2c-1.9-0.6-3.3-2.2-3.6-4.1l0.1-0.2l2.5-5.1
	c1.3-0.7,2.9-0.9,4.3-0.4c1.4,0.5,2.6,1.5,3.2,2.8L36.7,19L36.7,19z M29,44c-3.8,0.7-7.6-0.5-10.2-3.2c-0.5-0.5-0.6-1.2-0.4-1.8
	l3.3-9.8c0.2-0.6,0.8-1.1,1.4-1.2c0.7-0.1,1.4-0.2,2.1-0.2c3,0,6,1.2,8.1,3.4c0.5,0.5,0.6,1.2,0.4,1.8l-3.3,9.8
	C30.2,43.4,29.7,43.9,29,44z M74.4,53.9L63.9,29.7c-0.7-1.6-1.9-2.9-3.4-3.8l-2.9-1.7c-0.8-0.5-1.6-1.2-2-2l-3-5.1L49,11.2l0.1,0
	c0.3-0.1,0.6-0.4,0.7-0.7c0.1-0.3,0.1-0.6,0-0.9l-0.3-0.7c-0.6-1.4-2.2-2-3.6-1.4l-5.4,2.2c-0.1,0.1-0.3,0.1-0.4,0.2l-0.1,0.1
	l0.3-1.6l0.3-1.6l0.1,0c0.1,0,0.3,0.1,0.4,0.1c0.5,0,1-0.3,1.2-0.8l0.3-0.8c0.2-0.7,0.2-1.4-0.2-2.1s-0.9-1.1-1.6-1.3l-5.5-1.8
	c-1.5-0.5-3,0.3-3.5,1.7l-0.3,0.8c-0.1,0.3-0.1,0.6,0.1,0.9c0.2,0.3,0.4,0.5,0.7,0.6l0.1,0l-2,4.1l-1.9,3.9l-1.7,3.6
	c-0.2,0.4-0.5,0.9-0.8,1.2c-0.2,0.2-0.3,0.4-0.5,0.5s-0.4,0.3-0.6,0.5L22,19.8c-1.4,1-2.5,2.4-3.1,4l-8.4,24.9
	c-0.1,0.4-0.1,0.9,0.1,1.3c0.2,0.4,0.6,0.7,1,0.8l17,5.4c0.2,0.1,0.4,0.1,0.6,0.1c0.7,0,1.4-0.5,1.7-1.2l8.4-24.9
	c0.5-1.6,0.5-3.4,0-5l-1.1-3.2c-0.3-0.9-0.4-1.9-0.2-2.8l1.1-5.6l0.1,0.2c0.1,0.3,0.4,0.5,0.7,0.7c0.2,0.1,0.3,0.1,0.5,0.1
	c0.2,0,0.3,0,0.5-0.1l0.1,0l2.5,8.4l1.1,3.8c0,0.2,0.1,0.4,0.1,0.5c0.1,0.5,0.1,1.1,0.1,1.6c0,0.2-0.1,0.5-0.1,0.7l-0.8,3.2
	c-0.4,1.7-0.3,3.4,0.4,5L54.7,62c0.2,0.4,0.5,0.7,1,0.9c0.2,0.1,0.4,0.1,0.7,0.1c0.2,0,0.5,0,0.7-0.1l16.4-6.8
	c0.4-0.2,0.8-0.5,0.9-0.9C74.5,54.8,74.5,54.3,74.4,53.9z"/>
</svg>
