<?xml version="1.0" encoding="utf-8"?>
<!-- Generator: Adobe Illustrator 21.0.0, SVG Export Plug-In . SVG Version: 6.00 Build 0)  -->
<svg version="1.1" id="圖層_1" xmlns="http://www.w3.org/2000/svg" xmlns:xlink="http://www.w3.org/1999/xlink" x="0px" y="0px"
	 viewBox="0 0 85 63" style="enable-background:new 0 0 85 63;" xml:space="preserve">
<style type="text/css">
	.st0{fill-rule:evenodd;clip-rule:evenodd;fill:#018AF0;}
</style>
<path class="st0" d="M84.9,33.3c-0.4,0.7-0.9,1.4-1.6,2c-1.3,1.2-3.3,2.2-5.6,3.1c-4.7,1.8-11.3,2.9-18.4,2.9
	c-5.4,0-10.4-0.6-14.6-1.7c-1.3-0.3-2.6-0.7-3.7-1.2c-1.7,0.9-3.6,1.7-5.6,2.5l0.2,0.2c1.3,1.1,3.2,2.2,5.5,3
	C45.6,45.9,52,47,59.2,47c5.4,0,10.3-0.6,14.5-1.6c4.1-1,7.4-2.5,9.3-4.2c1.3-1.1,1.9-2.3,1.9-3.6V33.3z M50.8,22.4l1,3.9
	c2.3-0.3,4.8-0.5,7.5-0.5c6.5,0,12.2,1,15.3,2.5c1.1,0.5,1.9,1.1,2.3,1.7c0.3,0.4,0.4,0.8,0.4,1.2c0,0.1,0,0.2,0,0.3l0,0.1l-0.1,0.2
	l0,0.1l-0.1,0.2l-0.1,0.1L77,32.5l0,0l0,0c-0.1,0.1-0.1,0.2-0.2,0.3l-0.1,0L76.5,33l-0.1,0.1l-0.1,0.1l0,0c-0.1,0.1-0.3,0.2-0.4,0.3
	l0,0l-0.1,0c-0.2,0.1-0.3,0.2-0.5,0.3L75.1,34c-0.2,0.1-0.4,0.2-0.6,0.3l-0.1,0.1c-0.2,0.1-0.5,0.2-0.7,0.3l-0.1,0
	c-0.5,0.2-1,0.4-1.6,0.5c-3.3,1-7.7,1.5-12.7,1.5c-5,0-9.6-0.6-12.8-1.6c-0.3,0.2-0.7,0.5-1,0.7c-1.1,0.8-2.4,1.5-3.8,2.2
	c4.6,1.6,10.8,2.6,17.7,2.6c5.4,0,10.3-0.6,14.5-1.6c4.1-1,7.4-2.5,9.3-4.2c1.3-1.1,1.9-2.3,1.9-3.6c0-1.2-0.7-2.5-1.9-3.6
	c-1.3-1.1-3.2-2.2-5.5-3c-4.7-1.7-11.1-2.8-18.3-2.8C56.3,21.9,53.5,22.1,50.8,22.4z M71.7,27.9c-3.2-0.9-7.6-1.5-12.5-1.5
	c-2.6,0-5.1,0.2-7.4,0.5c0,0.2,0.1,0.4,0.1,0.7c0,1.4-0.6,2.8-1.8,4.2c-0.4,0.5-0.8,0.9-1.2,1.3c2.9-0.6,6.5-1,10.3-1
	c5.8,0,10.9,0.8,14.2,2c1.1-0.4,1.9-0.9,2.4-1.4c0.6-0.5,0.9-1,0.9-1.5c0-0.3-0.1-0.6-0.3-0.9c-0.2-0.3-0.5-0.6-1-0.9
	C74.6,28.9,73.3,28.4,71.7,27.9z M49.8,31.4c1.1-1.4,1.7-2.7,1.7-3.9c0-0.3,0-0.6-0.1-0.9l-1.1-4.1c-0.2,1-0.8,2.1-1.7,3.2
	c-1.1,1.4-2.8,2.8-4.8,4.2c-4.1,2.7-9.8,5.3-16.3,7c-5.5,1.5-10.7,2.2-15.1,2.2c-5.1,0-9.2-0.9-11.3-2.8c-0.1-0.1-0.3-0.3-0.4-0.4
	L1.7,40c0.2,0.7,0.6,1.4,1.3,2s1.5,1.1,2.6,1.5c2.1,0.8,5,1.2,8.4,1.2c4.4,0,9.6-0.7,15-2.2C38.7,39.8,46.5,35.5,49.8,31.4z
	 M7.9,31.5c0,0.1,0,0.2,0,0.3c0.1,0.5,0.5,0.9,1.2,1.2c0.7,0.3,1.6,0.6,2.7,0.7c2.9-2.1,7.6-4.2,13.2-5.7c4.5-1.2,8.7-1.8,12.1-1.8
	c0.8,0,1.5,0,2.2,0.1c0.8-0.6,1.4-1.2,1.9-1.7c0.4-0.6,0.7-1.1,0.7-1.5c0-0.1,0-0.2,0-0.3c-0.1-0.3-0.3-0.6-0.6-0.8
	c-0.3-0.2-0.7-0.5-1.3-0.6c-0.8-0.3-1.9-0.4-3.1-0.5c-0.4,0-0.8,0-1.3,0c-3.3,0-7.4,0.6-11.9,1.8c-3.4,0.9-6.5,2-9,3.2
	s-4.5,2.5-5.6,3.6C8.3,30.2,7.9,30.9,7.9,31.5z M12.1,26.5c1.8-1,4-2.1,6.6-3c1.5-0.6,3.1-1.1,4.8-1.5c4-1,7.7-1.6,10.8-1.8
	c0.4,0,0.9,0,1.3,0c2.4,0,4.4,0.3,5.6,1c0.2,0.1,0.3,0.2,0.5,0.3c0.4,0.3,0.7,0.7,0.8,1.1c0,0.1,0,0.1,0,0.2c0,0.1,0,0.2,0,0.2
	c0,0.1,0,0.3,0,0.4l0,0.1c0,0.1-0.1,0.3-0.1,0.4v0c-0.1,0.1-0.1,0.3-0.2,0.4L42,24.5c-0.1,0.1-0.2,0.3-0.3,0.4l0,0l0,0
	c-0.1,0.1-0.2,0.3-0.3,0.4l-0.1,0.1l-0.1,0.1l-0.3,0.3l0,0c-0.1,0.1-0.3,0.3-0.5,0.4l-0.1,0.1c-0.2,0.1-0.4,0.3-0.6,0.4l0,0
	l-0.1,0.1c-0.5,0.4-1.2,0.8-1.8,1.2c-2.9,1.7-6.9,3.3-11.4,4.5c-4.5,1.2-8.7,1.8-12.1,1.8c-0.8,0-1.6,0-2.2-0.1v0l-0.1,0l-0.2,0
	l-0.5-0.1l-0.3-0.1L10.4,34l-0.3-0.1l-0.4-0.1l-0.3-0.1l-0.3-0.1L9,33.5c-0.3-0.1-0.5-0.3-0.7-0.4l0,0l0,0C8.1,33,8.1,32.9,8,32.8
	l-0.1-0.1l-0.1-0.2l-0.1-0.1l-0.1-0.2l0-0.1c0-0.1-0.1-0.2-0.1-0.3c0-0.2-0.1-0.3-0.1-0.5c0-0.8,0.5-1.6,1.3-2.4
	C9.5,28.2,10.7,27.4,12.1,26.5z M1.4,35.9C2,36.5,2.9,36.9,4,37.3c2.1,0.8,5,1.2,8.4,1.2c4.4,0,9.6-0.7,15-2.2
	c9.7-2.6,17.6-7,20.9-11c1.1-1.4,1.7-2.7,1.7-3.8c0-0.3,0-0.6-0.1-0.9c-0.2-0.7-0.6-1.4-1.3-1.9c-0.6-0.6-1.5-1.1-2.6-1.5
	c-2.1-0.8-5-1.2-8.4-1.2c-4.4,0-9.6,0.7-15,2.1c-9.7,2.6-17.6,7-20.9,11C0.6,30.5,0,31.9,0,33c0,0.3,0,0.6,0.1,0.9
	C0.3,34.7,0.7,35.3,1.4,35.9z"/>
</svg>
