<?xml version="1.0" encoding="utf-8"?>
<!-- Generator: Adobe Illustrator 21.0.0, SVG Export Plug-In . SVG Version: 6.00 Build 0)  -->
<svg version="1.1" id="圖層_1" xmlns="http://www.w3.org/2000/svg" xmlns:xlink="http://www.w3.org/1999/xlink" x="0px" y="0px"
	 viewBox="0 0 85 63" style="enable-background:new 0 0 85 63;" xml:space="preserve">
<style type="text/css">
	.st0{fill-rule:evenodd;clip-rule:evenodd;fill:#018AF0;}
</style>
<path class="st0" d="M32.2,34.8c-0.9-0.1-1.9-0.3-3-0.4c1,2,2.3,3.9,4,5.4c1.1,1,2.3,1.9,3.7,2.6l1.1-2.1c-1.1-0.6-2.2-1.4-3.2-2.2
	C33.8,37,32.9,35.9,32.2,34.8z M30.9,42.3c-2.7-2.4-4.6-5.5-5.8-8.8l-0.2,0L22.4,33c1.2,4.2,3.5,8.1,6.8,11.1
	c1.9,1.8,4.1,3.2,6.5,4.2l1-2.2C34.6,45.2,32.6,43.9,30.9,42.3z M59.9,31.4c0.5,0.7,1,1.6,1.6,2.5c1.9-4.2,2.1-9,0.4-13.4l-2.3,0.8
	C60.9,24.7,60.9,28.2,59.9,31.4z M65.3,19.6c2.2,6,1.5,12.5-1.7,17.9l1.4,2.3c4.2-6.2,5.2-13.9,2.6-21L65.3,19.6z M44.7,9.2
	c-4.7,0.1-9.2,2.1-12.5,5.7l1.8,1.6c2.5-2.6,5.7-4.3,9.1-4.8C43.6,10.9,44.1,10.1,44.7,9.2z M29.6,12.5c4.5-4.8,11-7.3,17.5-6.7
	l1.5-2.2c-7.6-1-15.5,1.6-20.8,7.4L29.6,12.5z M46.6,26.8c0-1.5-1.2-2.7-2.8-2.7c-1.5,0-2.7,1.2-2.7,2.7s1.2,2.7,2.7,2.7
	C45.4,29.5,46.6,28.3,46.6,26.8z M36.3,31.8c1.1-0.5,2.5-1.3,3.8-2C39.5,29,39,28,39,26.8c0-0.5,0.1-1,0.3-1.5L17,27.6
	c-1.1,0.1-1.4,1.1-0.1,1.7c0.8,0.3,3.7,0.9,7.3,1.6c4.6,1,6.8,1.2,9.5,1.5C34.6,32.5,35.5,32.2,36.3,31.8z M63.5,45.2
	c-0.3-0.8-1.9-3.6-3.9-7c-2.6-4.4-3.9-6.3-5.7-8.7c-0.6-0.8-1.5-1.3-2.4-1.6c-0.8-0.3-1.8-0.7-2.8-1.1c0,2.6-2.2,4.8-4.9,4.8
	c-0.7,0-1.4-0.2-2-0.5l-4,27.4H26c-0.2,0-0.4,0.2-0.4,0.4v2.7c0,0.2,0.2,0.4,0.4,0.4h35.5c0.2,0,0.4-0.2,0.4-0.4v-2.7
	c0-0.2-0.2-0.4-0.4-0.4H50L46,31.9l16,14.4C63,47.1,64,46.6,63.5,45.2z M42,18.3c0,1.1,0.2,2.6,0.3,4c0.5-0.2,1-0.3,1.6-0.3
	c1.2,0,2.2,0.4,3.1,1.1l6.5-20.9c0.3-1.1-0.5-1.7-1.5-0.7c-0.6,0.6-2.3,3-4.4,6c-2.7,3.9-3.8,5.7-5.1,8.1C42,16.4,42,17.3,42,18.3z"
	/>
</svg>
